<?xml version="1.0" encoding="UTF-8" standalone="no"?>
<svg
   width="1643.3030666666666"
   height="1177.2742533333335"
   viewBox="0 0 1232.4773 882.95569"
   version="1.1"
   id="svg5"
   xmlns="http://www.w3.org/2000/svg"
   xmlns:svg="http://www.w3.org/2000/svg"
   xmlns:rdf="http://www.w3.org/1999/02/22-rdf-syntax-ns#"
   xmlns:cc="http://creativecommons.org/ns#"
   xmlns:dc="http://purl.org/dc/elements/1.1/">
  <defs
     id="defs2" />
  <path
     id="path4"
     fill="rgba(44,159,44,255)"
     stroke="none"
     d="M 1650 9304 C 1032 9247 525 8964 327 8565 C 243 8395 203 8256 193 8105 C 168 7683 416 7247 837 6976 C 1012 6863 1184 6797 1780 6612 C 2394 6421 2532 6374 2805 6263 C 3234 6089 3592 5883 3932 5613 C 4023 5541 4161 5411 4368 5201 C 4535 5033 4681 4883 4691 4869 L 4710 4842 L 4448 4577 C 4136 4263 3976 4127 3715 3953 C 3299 3676 2873 3488 2165 3268 C 1282 2994 1116 2935 953 2835 C 781 2729 601 2564 499 2420 C 314 2159 236 1849 285 1568 C 301 1476 357 1306 397 1226 C 591 842 1055 567 1640 489 C 1760 473 2090 473 2195 489 C 2671 561 2985 688 3272 927 C 3585 1187 3750 1537 3711 1860 C 3691 2018 3605 2255 3515 2395 C 3447 2502 3324 2614 3152 2725 C 3111 2751 3082 2776 3087 2780 C 3091 2785 3149 2823 3214 2864 C 3367 2962 3488 3020 3975 3230 C 4633 3514 5044 3709 5430 3921 C 5532 3977 5644 4038 5680 4057 L 5745 4092 L 6465 3683 C 7916 2858 9977 1691 10060 1648 C 10286 1530 10534 1449 10820 1398 C 10928 1379 10982 1376 11220 1376 C 11463 1375 11511 1378 11630 1398 C 11800 1427 11997 1478 12120 1525 C 12217 1562 12437 1667 12445 1680 C 12448 1684 12392 1721 12322 1762 C 9407 3472 7345 4683 7183 4781 C 7079 4843 7064 4856 7078 4866 C 7087 4872 7754 5266 8560 5740 C 9868 6511 11998 7767 12377 7991 C 12455 8037 12518 8079 12516 8084 C 12515 8089 12474 8115 12424 8142 C 11928 8409 11349 8466 10713 8310 C 10547 8269 10320 8190 10170 8121 C 10101 8090 9539 7778 8920 7428 C 8301 7079 7335 6533 6773 6216 L 5750 5640 L 5573 5736 C 5152 5965 4446 6305 3860 6562 C 3399 6765 3335 6795 3173 6893 C 3089 6944 3020 6987 3020 6990 C 3020 6993 3041 7008 3068 7025 C 3134 7066 3398 7331 3450 7409 C 3544 7549 3613 7739 3630 7905 C 3661 8204 3533 8518 3276 8774 C 2991 9057 2619 9227 2160 9285 C 2035 9300 1735 9312 1650 9304 Z M 2140 8706 C 2462 8632 2693 8466 2805 8228 C 2853 8127 2871 8050 2872 7945 C 2873 7751 2809 7592 2671 7447 C 2528 7296 2341 7216 2100 7201 C 1856 7186 1674 7218 1483 7310 C 1342 7377 1245 7446 1142 7554 C 931 7777 866 8033 963 8262 C 992 8332 1087 8466 1144 8518 C 1244 8609 1399 8681 1565 8714 C 1682 8737 1709 8738 1880 8734 C 1998 8731 2060 8725 2140 8706 Z M 2349 2560 C 2694 2476 2929 2208 2947 1880 C 2954 1754 2934 1662 2874 1540 C 2834 1460 2812 1431 2731 1349 C 2595 1213 2463 1140 2255 1085 C 2111 1047 2013 1037 1842 1043 C 1676 1048 1594 1064 1457 1116 C 1259 1192 1067 1392 1008 1583 C 977 1685 985 1825 1028 1935 C 1155 2260 1520 2525 1915 2579 C 2024 2594 2251 2584 2349 2560 Z"
     style="fill:#2c9f2c;fill-opacity:1"
     transform="matrix(0.1 0 0 -0.1 -19.127324 930.6557)" />
  <metadata
     id="metadata7">
    <rdf:RDF>
      <cc:Work
         rdf:about="">
        <cc:license
           rdf:resource="http://creativecommons.org/publicdomain/zero/1.0/" />
        <dc:source>https://svgsilh.com/image/1300330.html</dc:source>
      </cc:Work>
      <cc:License
         rdf:about="http://creativecommons.org/publicdomain/zero/1.0/">
        <cc:permits
           rdf:resource="http://creativecommons.org/ns#Reproduction" />
        <cc:permits
           rdf:resource="http://creativecommons.org/ns#Distribution" />
        <cc:permits
           rdf:resource="http://creativecommons.org/ns#DerivativeWorks" />
      </cc:License>
    </rdf:RDF>
  </metadata>
</svg>
